<svg width="106" height="106" viewBox="0 0 106 106" fill="none" xmlns="http://www.w3.org/2000/svg">
<path d="M81.1562 0H24.8438C11.1229 0 0 11.1229 0 24.8438V81.1562C0 94.8771 11.1229 106 24.8438 106H81.1562C94.8771 106 106 94.8771 106 81.1562V24.8438C106 11.1229 94.8771 0 81.1562 0Z" fill="#242938"/>
<path d="M94.4062 75.7473C93.2009 76.2039 91.87 76.203 90.6652 75.7448C89.4604 75.2867 88.4653 74.403 87.8678 73.2609C84.1151 67.6433 79.9712 62.2791 75.9883 56.7998L74.2613 54.4977C69.5186 60.8519 64.7759 66.9527 60.4477 73.2841C59.884 74.3757 58.9426 75.2251 57.7991 75.6741C56.6555 76.1231 55.3877 76.141 54.2318 75.7246L72.0282 51.8501L55.4749 30.2775C56.6664 29.8472 57.97 29.8413 59.1654 30.2607C60.3609 30.6801 61.375 31.4992 62.0365 32.5797C65.8811 38.1977 70.1405 43.5618 74.3764 49.2486C78.6359 43.6078 82.8489 38.2204 86.7858 32.6488C87.3527 31.575 88.2946 30.747 89.4323 30.3225C90.57 29.898 91.824 29.9066 92.9558 30.3466L86.5324 38.8651C83.6547 42.6637 80.8229 46.4855 77.8301 50.1922C77.5888 50.4081 77.3957 50.6724 77.2635 50.968C77.1314 51.2636 77.0631 51.5837 77.0631 51.9075C77.0631 52.2313 77.1314 52.5514 77.2635 52.847C77.3957 53.1425 77.5888 53.4069 77.8301 53.6227C83.3326 60.921 88.7887 68.242 94.4062 75.7473ZM11.5938 51.5508C12.0774 49.2486 12.3763 46.7389 13.0442 44.3908C17.0271 30.2319 33.2579 24.3378 44.4239 33.1097C50.9624 38.244 52.5971 45.5191 52.275 53.7151H15.4387C14.84 68.3576 25.4073 77.1982 38.9215 72.6858C41.1137 71.9015 43.0761 70.5837 44.6316 68.8513C46.1871 67.1189 47.2867 65.0264 47.8313 62.7628C48.5451 60.4606 49.6962 60.0693 51.8833 60.7367C51.5231 63.5396 50.5322 66.2243 48.9851 68.5889C47.4379 70.9536 45.3747 72.9368 42.9507 74.3892C38.9457 76.5795 34.3507 77.4473 29.8228 76.8684C25.2949 76.2895 21.066 74.2936 17.7409 71.1662C14.4513 67.4674 12.4623 62.794 12.0774 57.859C12.0774 57.0764 11.778 56.2934 11.6169 55.5568C11.6017 54.2215 11.594 52.8862 11.5938 51.5508ZM15.4847 50.5607H48.7985C48.5911 39.9475 41.8915 32.419 32.959 32.3503C23.0132 32.212 15.8992 39.579 15.4615 50.5148L15.4847 50.5607Z" fill="white"/>
</svg>
