<?xml version="1.0" standalone="no"?>
<!DOCTYPE svg PUBLIC "-//W3C//DTD SVG 20010904//EN"
 "http://www.w3.org/TR/2001/REC-SVG-20010904/DTD/svg10.dtd">
<svg version="1.0" xmlns="http://www.w3.org/2000/svg"
 width="406.000000pt" height="404.000000pt" viewBox="0 0 406.000000 404.000000"
 preserveAspectRatio="xMidYMid meet">
<metadata>
Created by potrace 1.16, written by Peter Selinger 2001-2019
</metadata>
<g transform="translate(0.000000,404.000000) scale(0.100000,-0.100000)"
fill="#EC5990" stroke="none">
<path d="M830 3690 c-216 -27 -394 -178 -463 -395 l-22 -70 0 -1205 c0 -1141
1 -1208 18 -1265 59 -190 202 -333 392 -392 57 -17 124 -18 1275 -18 1151 0
1218 1 1275 18 190 59 333 202 392 392 17 57 18 124 18 1265 0 1141 -1 1208
-18 1265 -58 188 -197 328 -387 391 -52 18 -122 19 -1235 20 -649 1 -1209 -2
-1245 -6z m1295 -539 c49 -22 97 -69 115 -110 l12 -31 242 0 c237 0 242 -1
296 -26 68 -31 114 -74 148 -139 l27 -50 0 -855 0 -855 -27 -51 c-15 -28 -48
-70 -73 -92 -85 -75 -55 -72 -835 -72 -780 0 -750 -3 -835 72 -25 22 -58 64
-73 92 l-27 51 0 855 0 855 27 50 c34 65 80 108 148 139 54 25 59 26 296 26
l242 0 12 31 c31 74 119 129 210 129 32 0 72 -8 95 -19z"/>
<path d="M1976 3100 c-41 -13 -85 -58 -107 -107 l-18 -43 -81 0 -80 0 0 -99
c0 -82 3 -103 19 -122 l19 -24 296 -3 296 -3 25 25 c23 23 25 32 25 126 l0
100 -79 0 -79 0 -26 53 c-15 30 -40 62 -61 76 -38 26 -104 35 -149 21z"/>
<path d="M1316 2935 c-56 -20 -107 -65 -136 -121 l-25 -48 -3 -805 c-3 -886
-4 -868 59 -944 17 -21 50 -48 72 -60 l42 -22 705 0 705 0 42 22 c54 29 100
86 118 147 22 72 22 1599 1 1670 -19 62 -56 109 -114 143 -45 27 -54 28 -199
31 l-153 4 0 -107 c0 -120 -11 -154 -63 -185 -30 -19 -52 -20 -335 -20 -335 0
-345 2 -382 63 -17 26 -20 51 -20 140 l0 107 -137 0 c-91 -1 -151 -6 -177 -15z
m619 -835 l0 -25 -256 -3 c-269 -2 -289 1 -273 42 6 15 33 16 268 14 l261 -3
0 -25z m709 14 c16 -41 -5 -44 -271 -44 -216 0 -254 2 -259 15 -4 8 -4 22 0
30 5 13 43 15 265 15 230 0 260 -2 265 -16z m-709 -664 l0 -25 -261 -3 c-235
-2 -262 -1 -268 14 -16 41 4 44 273 42 l256 -3 0 -25z m704 16 c6 -7 9 -21 5
-30 -5 -14 -35 -16 -265 -16 -222 0 -260 2 -265 15 -4 8 -4 22 0 30 8 21 507
23 525 1z"/>
</g>
</svg>
