<svg width="107" height="106" viewBox="0 0 107 106" fill="none" xmlns="http://www.w3.org/2000/svg">
<g clip-path="url(#clip0_84_40)">
<path d="M106.84 94.2222C106.84 97.3459 105.599 100.342 103.39 102.55C101.182 104.759 98.186 106 95.0623 106H12.6179C9.4942 106 6.49848 104.759 4.28972 102.55C2.08096 100.342 0.840088 97.3459 0.840088 94.2222V11.7778C0.840088 8.65412 2.08096 5.65839 4.28972 3.44963C6.49848 1.24087 9.4942 0 12.6179 0L95.0623 0C98.186 0 101.182 1.24087 103.39 3.44963C105.599 5.65839 106.84 8.65412 106.84 11.7778V94.2222Z" fill="#7F3BC3"/>
<path d="M31.751 27.2332C31.751 22.8518 34.7631 20.3873 38.9619 20.3873H56.4902C65.9831 20.3873 73.6563 26.7768 73.6563 36.4552C73.6563 42.8446 71.0063 47.1376 65.1616 49.8759V50.0585C72.9261 51.1538 79.0388 57.6346 79.0388 65.5787C79.0388 78.4518 70.4586 85.3918 57.8594 85.3918H39.0561C34.8544 85.3918 31.751 82.7448 31.751 78.4547V27.2332ZM45.4456 46.1306H52.5682C57.0408 46.1306 59.9617 43.4836 59.9617 38.9167C59.9617 34.6267 56.5844 32.436 52.5682 32.436H45.4456V46.1306ZM45.4456 73.3373H56.2193C61.1483 73.3373 64.8024 70.5077 64.8024 65.3961C64.8024 61.1031 61.5134 58.1822 55.124 58.1822H45.4456V73.3373Z" fill="white"/>
</g>
<defs>
<clipPath id="clip0_84_40">
<rect width="106" height="106" fill="white" transform="translate(0.840088)"/>
</clipPath>
</defs>
</svg>
