<svg width="107" height="106" viewBox="0 0 107 106" fill="none" xmlns="http://www.w3.org/2000/svg">
<g clip-path="url(#clip0_87_72)">
<path d="M81.9962 0H25.6837C11.9629 0 0.839966 11.1229 0.839966 24.8438V81.1562C0.839966 94.8771 11.9629 106 25.6837 106H81.9962C95.717 106 106.84 94.8771 106.84 81.1562V24.8438C106.84 11.1229 95.717 0 81.9962 0Z" fill="#0277BD"/>
<path d="M23.0971 42.5039L24.2821 55.7299H53.8797V42.5039H23.0971ZM53.8793 15.7344H20.715L21.9174 28.9604H53.8793V15.7344ZM53.8793 90.6139V76.8533L53.8213 76.8686L39.0915 72.8916L38.1499 62.3429H24.873L26.7259 83.1098L53.8184 90.6308L53.8793 90.6139Z" fill="#EBEBEB"/>
<path d="M70.1201 55.7299L68.5847 72.8829L53.8337 76.8645V90.6242L80.9478 83.1098L81.1465 80.8751L84.2545 46.0558L84.5771 42.5039L86.965 15.7344H53.8337V28.9604H72.4703L71.267 42.5039H53.8337V55.7299H70.1201Z" fill="white"/>
</g>
<defs>
<clipPath id="clip0_87_72">
<rect width="106" height="106" fill="white" transform="translate(0.839966)"/>
</clipPath>
</defs>
</svg>
