<svg width="106" height="106" viewBox="0 0 106 106" fill="none" xmlns="http://www.w3.org/2000/svg">
<path d="M92.22 13.6873C88.9826 10.4498 85.0871 8.83334 80.5291 8.83334H25.3782C20.8202 8.83334 16.9247 10.4498 13.6873 13.6873C10.4498 16.9247 8.83334 20.8202 8.83334 25.3782V80.5291C8.83334 85.0871 10.4498 88.9826 13.6873 92.22C16.9247 95.4574 20.8202 97.0739 25.3782 97.0739H38.2483C39.0875 97.0739 39.7191 97.043 40.1431 96.9856C40.6364 96.8867 41.0816 96.6236 41.4063 96.2392C41.8258 95.7975 42.0378 95.1571 42.0378 94.3179L42.0069 90.4092C41.9893 87.9182 41.9804 85.9483 41.9804 84.4908L40.6554 84.7205C39.8163 84.8751 38.7563 84.9413 37.471 84.9237C36.1314 84.899 34.796 84.7645 33.4783 84.5218C32.0756 84.2628 30.7551 83.6722 29.627 82.7993C28.4455 81.9055 27.5643 80.673 27.1007 79.2659L26.5265 77.9409C26.0426 76.8957 25.4346 75.9126 24.7157 75.0127C23.8942 73.9394 23.0594 73.2151 22.2158 72.8308L21.8183 72.5438C21.5412 72.3452 21.289 72.1139 21.0675 71.8548C20.8559 71.6142 20.6817 71.3433 20.5508 71.0509C20.4359 70.7815 20.5331 70.5607 20.8378 70.3884C21.147 70.2118 21.6991 70.1278 22.5073 70.1278L23.6557 70.3045C24.4198 70.4547 25.3693 70.914 26.4956 71.6781C27.6354 72.4551 28.5874 73.4766 29.2825 74.6682C30.1658 76.2361 31.2258 77.433 32.4713 78.2589C33.7168 79.0804 34.9712 79.4956 36.2343 79.4956C37.4975 79.4956 38.5884 79.3984 39.5115 79.2085C40.4042 79.0239 41.2716 78.7333 42.0953 78.3428C42.4398 75.7812 43.3761 73.8025 44.9087 72.4245C42.9228 72.2298 40.9547 71.8843 39.0213 71.391C37.1344 70.8727 35.3198 70.1204 33.6197 69.1518C31.8408 68.1833 30.2696 66.8747 28.9954 65.3004C27.772 63.7678 26.765 61.7583 25.9788 59.2717C25.1971 56.7807 24.804 53.9054 24.804 50.6503C24.804 46.0173 26.3145 42.0732 29.3399 38.8137C27.9266 35.3333 28.0591 31.4246 29.7418 27.1007C30.8548 26.7518 32.5023 27.0123 34.6841 27.8736C36.8659 28.7348 38.4648 29.4724 39.4806 30.0819C40.4964 30.7003 41.3091 31.217 41.923 31.6366C45.5136 30.6373 49.2243 30.135 52.9514 30.1438C56.7453 30.1438 60.42 30.6428 63.9843 31.6366L66.1661 30.2586C67.8443 29.2509 69.6145 28.405 71.4528 27.7323C73.4845 26.9638 75.0303 26.7562 76.108 27.1007C77.8305 31.429 77.9807 35.3333 76.5629 38.8181C79.5883 42.0732 81.1033 46.0173 81.1033 50.6548C81.1033 53.9098 80.7102 56.7939 79.924 59.2982C79.1423 61.8068 78.1264 63.8164 76.8809 65.3313C75.5842 66.8855 74.0065 68.1815 72.2302 69.1518C70.3752 70.1853 68.5732 70.9317 66.8286 71.391C64.8953 71.8859 62.9271 72.2329 60.9412 72.4289C62.9287 74.1514 63.9268 76.8677 63.9268 80.5821V94.3179C63.9268 94.9672 64.0196 95.4928 64.2139 95.8947C64.3032 96.0883 64.4306 96.262 64.5884 96.4054C64.7462 96.5488 64.9313 96.659 65.1326 96.7294C65.5566 96.8796 65.9276 96.9768 66.2544 97.0121C66.5813 97.0563 67.0494 97.0695 67.6589 97.0695H80.5291C85.0871 97.0695 88.9826 95.453 92.22 92.2156C95.453 88.9826 97.0739 85.0827 97.0739 80.5247V25.3782C97.0739 20.8202 95.4574 16.9247 92.22 13.6873Z" fill="black"/>
</svg>
