<svg width="107" height="106" viewBox="0 0 107 106" fill="none" xmlns="http://www.w3.org/2000/svg">
<g clip-path="url(#clip0_87_67)">
<path d="M81.9962 0H25.6837C11.9629 0 0.839966 11.1229 0.839966 24.8438V81.1562C0.839966 94.8771 11.9629 106 25.6837 106H81.9962C95.717 106 106.84 94.8771 106.84 81.1562V24.8438C106.84 11.1229 95.717 0 81.9962 0Z" fill="#E14E1D"/>
<path d="M20.715 15.7344L24.28 55.7299H70.1209L68.5827 72.8845L53.823 76.8753L39.0911 72.8903L38.106 61.8754H24.8307L26.7292 83.109L53.8201 90.6333L80.9453 83.109L84.582 42.5056H36.3765L35.1662 28.9616H85.7803L86.965 15.7344H20.715Z" fill="white"/>
<path d="M53.84 15.7344H20.715L24.28 55.7299H53.84V42.5056H36.3765L35.1662 28.9616H53.84V15.7344ZM53.84 76.8695L53.823 76.8753L39.0911 72.8903L38.106 61.8754H24.8307L26.7292 83.109L53.8201 90.6333L53.8404 90.6275L53.84 76.8695Z" fill="#EBEBEB"/>
</g>
<defs>
<clipPath id="clip0_87_67">
<rect width="106" height="106" fill="white" transform="translate(0.839966)"/>
</clipPath>
</defs>
</svg>
