<svg width="106" height="106" viewBox="0 0 106 106" fill="none" xmlns="http://www.w3.org/2000/svg">
<g clip-path="url(#clip0_87_77)">
<path d="M81.1562 0H24.8438C11.1229 0 0 11.1229 0 24.8438V81.1562C0 94.8771 11.1229 106 24.8438 106H81.1562C94.8771 106 106 94.8771 106 81.1562V24.8438C106 11.1229 94.8771 0 81.1562 0Z" fill="#F0DB4F"/>
<path d="M27.8714 88.5812L35.9829 83.6721C37.548 86.4467 38.9716 88.7945 42.3863 88.7945C45.6595 88.7945 47.7232 87.5142 47.7232 82.5338V48.6644H57.6847V82.6746C57.6847 92.9918 51.6369 97.6881 42.8132 97.6881C34.8446 97.6881 30.2191 93.5611 27.871 88.5804M63.0953 87.5138L71.2059 82.8179C73.3412 86.3047 76.1163 88.8661 81.0254 88.8661C85.1532 88.8661 87.785 86.8024 87.785 83.9561C87.785 80.541 85.0812 79.3311 80.5273 77.3394L78.0375 76.2716C70.8507 73.2125 66.0831 69.37 66.0831 61.2585C66.0831 53.7871 71.7757 48.0946 80.6702 48.0946C87.0028 48.0946 91.5567 50.3007 94.8294 56.0641L87.0736 61.0448C85.3656 57.9853 83.5164 56.7758 80.6702 56.7758C77.7527 56.7758 75.9026 58.6259 75.9026 61.0448C75.9026 64.0331 77.7527 65.243 82.0216 67.0934L84.5118 68.1605C92.979 71.7897 97.7465 75.489 97.7465 83.8137C97.7465 92.7798 90.7025 97.6889 81.2391 97.6889C71.9893 97.6889 66.0123 93.2775 63.0953 87.5138Z" fill="#323330"/>
</g>
<defs>
<clipPath id="clip0_87_77">
<rect width="106" height="106" fill="white"/>
</clipPath>
</defs>
</svg>
