<svg width="106" height="106" viewBox="0 0 106 106" fill="none" xmlns="http://www.w3.org/2000/svg">
<path d="M81.1562 0H24.8438C11.1229 0 0 11.1229 0 24.8438V81.1562C0 94.8771 11.1229 106 24.8438 106H81.1562C94.8771 106 106 94.8771 106 81.1562V24.8438C106 11.1229 94.8771 0 81.1562 0Z" fill="#242938"/>
<path d="M49.6369 12.884C51.6737 11.7184 54.3262 11.713 56.3609 12.884C66.5974 18.6684 76.8371 24.4433 87.0719 30.2311C88.9973 31.3155 90.2846 33.4579 90.2652 35.676V70.4759C90.2797 72.786 88.8648 74.9797 86.8338 76.0393C76.6309 81.7918 66.433 87.551 56.2317 93.3036C54.1535 94.492 51.4476 94.4005 49.4336 93.1144C46.375 91.3414 43.3109 89.5766 40.2518 87.8053C39.6266 87.4326 38.9218 87.1361 38.4804 86.5299C38.8709 86.0041 39.5686 85.9387 40.1355 85.7089C41.412 85.3027 42.5851 84.6509 43.7577 84.0187C44.0546 83.8158 44.4164 83.8936 44.7009 84.075C47.3165 85.5747 49.9094 87.1183 52.5337 88.6036C53.0935 88.927 53.6604 88.4976 54.1391 88.2309C64.1511 82.5719 74.1755 76.9349 84.1863 71.2742C84.5573 71.0958 84.7623 70.702 84.7321 70.2958C84.7391 58.8159 84.7337 47.3344 84.7358 35.8541C84.778 35.3936 84.5114 34.9696 84.0944 34.7808C73.9271 29.0548 63.7643 23.3204 53.5987 17.5931C53.4226 17.4719 53.214 17.4069 53.0003 17.4065C52.7866 17.4061 52.5777 17.4705 52.4012 17.591C42.2352 23.3204 32.0749 29.0606 21.9088 34.7858C21.4935 34.975 21.2149 35.392 21.2641 35.8541C21.2662 47.3344 21.2641 58.8159 21.2641 70.2975C21.2465 70.4958 21.2901 70.6947 21.389 70.8675C21.4879 71.0403 21.6374 71.1787 21.8173 71.2639C24.5299 72.8021 27.2461 74.3296 29.9607 75.8629C31.4902 76.6856 33.3676 77.175 35.0528 76.5444C36.5393 76.0111 37.5815 74.4936 37.5534 72.9152C37.5674 61.5024 37.5463 50.0879 37.5637 38.6763C37.5264 38.1699 38.0072 37.7513 38.4999 37.7993C39.8034 37.7902 41.1085 37.7815 42.412 37.8027C42.9561 37.7902 43.3304 38.336 43.2633 38.8461C43.2579 50.3314 43.2774 61.8166 43.2546 73.3015C43.2579 76.3626 42.0004 79.6934 39.169 81.191C35.6814 82.9976 31.3702 82.6146 27.9243 80.8821C24.9414 79.3932 22.0943 77.6359 19.1644 76.0409C17.1281 74.9871 15.7203 72.7847 15.7348 70.4763V35.676C15.7132 33.4119 17.0523 31.2307 19.0369 30.162C29.2382 24.4053 39.4378 18.6436 49.6369 12.884Z" fill="#81CD39"/>
<path d="M58.5368 36.9903C62.9859 36.7037 67.7489 36.8205 71.7524 39.0126C74.8525 40.692 76.5709 44.2173 76.6255 47.6611C76.539 48.1252 76.0533 48.3816 75.6098 48.3497C74.3192 48.348 73.0278 48.3675 71.7371 48.341C71.1893 48.3621 70.8713 47.8574 70.8026 47.3733C70.4316 45.7253 69.5327 44.0935 67.982 43.2985C65.6011 42.1069 62.841 42.1669 60.2448 42.1917C58.3496 42.2919 56.3116 42.4563 54.7059 43.5706C53.4732 44.4148 53.0989 46.1191 53.5387 47.4917C53.9535 48.4772 55.091 48.7952 56.0222 49.0884C61.3839 50.4908 67.0657 50.3508 72.3251 52.1963C74.5026 52.9487 76.6326 54.4115 77.3779 56.6914C78.353 59.7472 77.9257 63.3992 75.7515 65.8521C73.9884 67.8706 71.4208 68.9696 68.8598 69.5662C65.4529 70.326 61.9172 70.3455 58.4573 70.008C55.204 69.637 51.8182 68.7824 49.3069 66.5659C47.1592 64.701 46.1104 61.7951 46.2143 58.9911C46.2392 58.5174 46.7108 58.187 47.1646 58.2259C48.4643 58.2155 49.7645 58.2118 51.0642 58.228C51.5839 58.1907 51.9685 58.6395 51.9954 59.129C52.2348 60.6987 52.8248 62.3466 54.1941 63.277C56.8358 64.9817 60.1512 64.865 63.1764 64.9126C65.6827 64.8016 68.4963 64.7681 70.5413 63.1114C71.6204 62.1665 71.94 60.5856 71.6485 59.2258C71.3326 58.0777 70.1314 57.5427 69.1 57.1928C63.807 55.5188 58.0615 56.1262 52.8198 54.2327C50.6916 53.4807 48.6337 52.0588 47.8163 49.8726C46.6756 46.7783 47.1981 42.9507 49.6001 40.581C51.942 38.2229 55.3224 37.3149 58.5368 36.9903Z" fill="#81CD39"/>
</svg>
