<svg width="106" height="106" viewBox="0 0 106 106" fill="none" xmlns="http://www.w3.org/2000/svg">
<g clip-path="url(#clip0_83_8)">
<path d="M81.1562 0H24.8438C11.1229 0 0 11.1229 0 24.8438V81.1562C0 94.8771 11.1229 106 24.8438 106H81.1562C94.8771 106 106 94.8771 106 81.1562V24.8438C106 11.1229 94.8771 0 81.1562 0Z" fill="#242938"/>
<path d="M53.0004 60.8469C57.2669 60.8469 60.7251 57.3882 60.7251 53.1221C60.7251 48.8561 57.2669 45.3974 53.0004 45.3974C48.7343 45.3974 45.2756 48.8561 45.2756 53.1221C45.2756 57.3882 48.7343 60.8469 53.0004 60.8469Z" fill="#00D8FF"/>
<path d="M53.0008 37.4159C63.3723 37.4159 73.0071 38.9041 80.2718 41.4054C89.0247 44.4185 94.4062 48.9861 94.4062 53.1221C94.4062 57.4321 88.703 62.2845 79.3033 65.3987C72.1972 67.753 62.846 68.982 53.0008 68.982C42.9068 68.982 33.3482 67.8284 26.1617 65.3726C17.0697 62.2651 11.5938 57.3501 11.5938 53.1221C11.5938 49.0196 16.7323 44.4873 25.3622 41.4787C32.6538 38.9364 42.5263 37.4159 52.9992 37.4159H53.0008Z" stroke="#00D8FF" stroke-width="3.68971"/>
<path d="M39.328 45.3142C44.5096 36.3298 50.6117 28.7268 56.4077 23.6835C63.3905 17.6063 70.0362 15.2263 73.6186 17.2921C77.3522 19.4452 78.7066 26.8105 76.7088 36.5087C75.1995 43.8405 71.5914 52.5549 66.6727 61.0837C61.6299 69.8279 55.8558 77.532 50.1388 82.5289C42.9047 88.8524 35.9108 91.1409 32.2484 89.0288C28.6945 86.9809 27.3356 80.2644 29.0407 71.2854C30.4812 63.6985 34.0964 54.3867 39.3264 45.3142H39.328Z" stroke="#00D8FF" stroke-width="3.68971"/>
<path d="M39.3409 61.1065C34.1449 52.1321 30.6071 43.0468 29.1306 35.5067C27.353 26.4217 28.6097 19.4758 32.1893 17.4039C35.9195 15.2441 42.9764 17.7492 50.3807 24.3237C55.9788 29.2941 61.7272 36.7708 66.66 45.2914C71.7173 54.0273 75.5077 62.8779 76.9821 70.326C78.8479 79.7517 77.3378 86.9535 73.6787 89.0715C70.1286 91.1269 63.6315 88.951 56.7038 82.9893C50.8506 77.9526 44.5884 70.1703 39.3409 61.1065Z" stroke="#00D8FF" stroke-width="3.68971"/>
</g>
<defs>
<clipPath id="clip0_83_8">
<rect width="106" height="106" fill="white"/>
</clipPath>
</defs>
</svg>
